{
  "accessors": [
    {
      "bufferView": 2,
      "componentType": 5126,
      "count": 548,
      "max": [
        0.880952000617981,
        0.880952000617981,
        0.5952379703521729
      ],
      "min": [
        -0.857142984867096,
        -0.8333330154418945,
        0.0
      ],
      "type": "VEC3"
    },
    {
      "bufferView": 2,
      "byteOffset": 6576,
      "componentType": 5126,
      "count": 548,
      "max": [
        1.0,
        1.0,
        0.0
      ],
      "min": [
        -1.0,
        -1.0,
        -1.0
      ],
      "type": "VEC3"
    },
    {
      "bufferView": 1,
      "componentType": 5126,
      "count": 548,
      "max": [
        0.244140625,
        0.962890625
      ],
      "min": [
        0.212890625,
        0.931640625
      ],
      "type": "VEC2"
    },
    {
      "bufferView": 0,
      "componentType": 5125,
      "count": 822,
      "type": "SCALAR"
    },
    {
      "bufferView": 2,
      "byteOffset": 13152,
      "componentType": 5126,
      "count": 5070,
      "max": [
        0.880952000617981,
        0.880952000617981,
        0.7380949854850769
      ],
      "min": [
        -0.857142984867096,
        -0.880952000617981,
        0.0
      ],
      "type": "VEC3"
    },
    {
      "bufferView": 2,
      "byteOffset": 73992,
      "componentType": 5126,
      "count": 5070,
      "max": [
        1.0,
        1.0,
        1.0
      ],
      "min": [
        -1.0,
        -1.0,
        -1.0
      ],
      "type": "VEC3"
    },
    {
      "bufferView": 1,
      "byteOffset": 4384,
      "componentType": 5126,
      "count": 5070,
      "max": [
        0.103515625,
        0.998046875
      ],
      "min": [
        0.072265625,
        0.966796875
      ],
      "type": "VEC2"
    },
    {
      "bufferView": 0,
      "byteOffset": 3288,
      "componentType": 5125,
      "count": 7854,
      "type": "SCALAR"
    },
    {
      "bufferView": 2,
      "byteOffset": 134832,
      "componentType": 5126,
      "count": 32,
      "max": [
        0.8826249837875366,
        0.7885299921035767,
        0.4761900007724762
      ],
      "min": [
        -0.06925489753484726,
        -0.5715630054473877,
        0.19047600030899048
      ],
      "type": "VEC3"
    },
    {
      "bufferView": 2,
      "byteOffset": 135216,
      "componentType": 5126,
      "count": 32,
      "max": [
        0.7071068286895752,
        0.7071068286895752,
        0.0
      ],
      "min": [
        -0.7071068286895752,
        -0.7071068286895752,
        0.0
      ],
      "type": "VEC3"
    },
    {
      "bufferView": 1,
      "byteOffset": 44944,
      "componentType": 5126,
      "count": 32,
      "max": [
        0.419921875,
        0.962890625
      ],
      "min": [
        0.388671875,
        0.931640625
      ],
      "type": "VEC2"
    },
    {
      "bufferView": 0,
      "byteOffset": 34704,
      "componentType": 5125,
      "count": 48,
      "type": "SCALAR"
    },
    {
      "bufferView": 2,
      "byteOffset": 135600,
      "componentType": 5126,
      "count": 176,
      "max": [
        0.880952000617981,
        -0.3095239996910095,
        0.2619050145149231
      ],
      "min": [
        0.7619050145149231,
        -0.5952379703521729,
        0.14285700023174286
      ],
      "type": "VEC3"
    },
    {
      "bufferView": 2,
      "byteOffset": 137712,
      "componentType": 5126,
      "count": 176,
      "max": [
        1.0,
        1.0,
        1.0
      ],
      "min": [
        0.0,
        -1.0,
        0.0
      ],
      "type": "VEC3"
    },
    {
      "bufferView": 1,
      "byteOffset": 45200,
      "componentType": 5126,
      "count": 176,
      "max": [
        0.455078125,
        0.998046875
      ],
      "min": [
        0.001953125,
        0.896484375
      ],
      "type": "VEC2"
    },
    {
      "bufferView": 0,
      "byteOffset": 34896,
      "componentType": 5125,
      "count": 264,
      "type": "SCALAR"
    },
    {
      "bufferView": 2,
      "byteOffset": 139824,
      "componentType": 5126,
      "count": 432,
      "max": [
        0.19047600030899048,
        0.880952000617981,
        0.33333298563957214
      ],
      "min": [
        -0.857142984867096,
        -0.5,
        0.0
      ],
      "type": "VEC3"
    },
    {
      "bufferView": 2,
      "byteOffset": 145008,
      "componentType": 5126,
      "count": 432,
      "max": [
        1.0,
        1.0,
        1.0
      ],
      "min": [
        -1.0,
        -1.0,
        -1.0
      ],
      "type": "VEC3"
    },
    {
      "bufferView": 1,
      "byteOffset": 46608,
      "componentType": 5126,
      "count": 432,
      "max": [
        0.701171875,
        0.998046875
      ],
      "min": [
        0.669921875,
        0.966796875
      ],
      "type": "VEC2"
    },
    {
      "bufferView": 0,
      "byteOffset": 35952,
      "componentType": 5125,
      "count": 648,
      "type": "SCALAR"
    },
    {
      "bufferView": 2,
      "byteOffset": 150192,
      "componentType": 5126,
      "count": 232,
      "max": [
        0.880952000617981,
        0.880952000617981,
        0.04761900007724762
      ],
      "min": [
        -0.7857139706611633,
        -0.7380949854850769,
        0.0
      ],
      "type": "VEC3"
    },
    {
      "bufferView": 2,
      "byteOffset": 152976,
      "componentType": 5126,
      "count": 232,
      "max": [
        1.0,
        1.0,
        1.0
      ],
      "min": [
        -1.0,
        -1.0,
        -1.0
      ],
      "type": "VEC3"
    },
    {
      "bufferView": 1,
      "byteOffset": 50064,
      "componentType": 5126,
      "count": 232,
      "max": [
        0.208984375,
        0.962890625
      ],
      "min": [
        0.177734375,
        0.931640625
      ],
      "type": "VEC2"
    },
    {
      "bufferView": 0,
      "byteOffset": 38544,
      "componentType": 5125,
      "count": 348,
      "type": "SCALAR"
    },
    {
      "bufferView": 2,
      "byteOffset": 155760,
      "componentType": 5126,
      "count": 33564,
      "max": [
        0.880952000617981,
        0.880952000617981,
        1.0
      ],
      "min": [
        -0.857142984867096,
        -0.880952000617981,
        0.095238097012043
      ],
      "type": "VEC3"
    },
    {
      "bufferView": 2,
      "byteOffset": 558528,
      "componentType": 5126,
      "count": 33564,
      "max": [
        1.0,
        1.0,
        1.0
      ],
      "min": [
        -1.0,
        -1.0,
        -1.0
      ],
      "type": "VEC3"
    },
    {
      "bufferView": 1,
      "byteOffset": 51920,
      "componentType": 5126,
      "count": 33564,
      "max": [
        0.173828125,
        0.646484375
      ],
      "min": [
        0.142578125,
        0.615234375
      ],
      "type": "VEC2"
    },
    {
      "bufferView": 0,
      "byteOffset": 39936,
      "componentType": 5125,
      "count": 50346,
      "type": "SCALAR"
    },
    {
      "bufferView": 2,
      "byteOffset": 961296,
      "componentType": 5126,
      "count": 46900,
      "max": [
        0.880952000617981,
        0.880952000617981,
        0.7648810148239136
      ],
      "min": [
        -0.857142984867096,
        -0.880952000617981,
        0.16666699945926666
      ],
      "type": "VEC3"
    },
    {
      "bufferView": 2,
      "byteOffset": 1524096,
      "componentType": 5126,
      "count": 46900,
      "max": [
        1.0,
        1.0,
        1.0
      ],
      "min": [
        -1.0,
        -1.0,
        0.0
      ],
      "type": "VEC3"
    },
    {
      "bufferView": 1,
      "byteOffset": 320432,
      "componentType": 5126,
      "count": 46900,
      "max": [
        0.384765625,
        0.927734375
      ],
      "min": [
        0.353515625,
        0.896484375
      ],
      "type": "VEC2"
    },
    {
      "bufferView": 0,
      "byteOffset": 241320,
      "componentType": 5125,
      "count": 70350,
      "type": "SCALAR"
    },
    {
      "bufferView": 2,
      "byteOffset": 2086896,
      "componentType": 5126,
      "count": 11468,
      "max": [
        0.880952000617981,
        0.880952000617981,
        0.7619050145149231
      ],
      "min": [
        -0.857142984867096,
        -0.880952000617981,
        0.19047600030899048
      ],
      "type": "VEC3"
    },
    {
      "bufferView": 2,
      "byteOffset": 2224512,
      "componentType": 5126,
      "count": 11468,
      "max": [
        1.0,
        1.0,
        1.0
      ],
      "min": [
        -1.0,
        -1.0,
        -1.0
      ],
      "type": "VEC3"
    },
    {
      "bufferView": 1,
      "byteOffset": 695632,
      "componentType": 5126,
      "count": 11468,
      "max": [
        0.384765625,
        0.927734375
      ],
      "min": [
        0.353515625,
        0.896484375
      ],
      "type": "VEC2"
    },
    {
      "bufferView": 0,
      "byteOffset": 522720,
      "componentType": 5125,
      "count": 17202,
      "type": "SCALAR"
    },
    {
      "bufferView": 2,
      "byteOffset": 2362128,
      "componentType": 5126,
      "count": 72,
      "max": [
        -0.8095239996910095,
        0.2857140004634857,
        0.42592599987983704
      ],
      "min": [
        -0.857142984867096,
        0.14285700023174286,
        0.38095200061798096
      ],
      "type": "VEC3"
    },
    {
      "bufferView": 2,
      "byteOffset": 2362992,
      "componentType": 5126,
      "count": 72,
      "max": [
        0.0,
        -0.0,
        1.0
      ],
      "min": [
        -1.0,
        -0.0,
        0.0
      ],
      "type": "VEC3"
    },
    {
      "bufferView": 1,
      "byteOffset": 787376,
      "componentType": 5126,
      "count": 72,
      "max": [
        0.982421875,
        0.751953125
      ],
      "min": [
        0.142578125,
        0.439453125
      ],
      "type": "VEC2"
    },
    {
      "bufferView": 0,
      "byteOffset": 591528,
      "componentType": 5125,
      "count": 108,
      "type": "SCALAR"
    },
    {
      "bufferView": 2,
      "byteOffset": 2363856,
      "componentType": 5126,
      "count": 41304,
      "max": [
        0.880952000617981,
        0.880952000617981,
        0.642857015132904
      ],
      "min": [
        -0.857142984867096,
        -0.880952000617981,
        0.0
      ],
      "type": "VEC3"
    },
    {
      "bufferView": 2,
      "byteOffset": 2859504,
      "componentType": 5126,
      "count": 41304,
      "max": [
        1.0,
        1.0,
        1.0
      ],
      "min": [
        -1.0,
        -1.0,
        -1.0
      ],
      "type": "VEC3"
    },
    {
      "bufferView": 1,
      "byteOffset": 787952,
      "componentType": 5126,
      "count": 41304,
      "max": [
        0.876953125,
        0.998046875
      ],
      "min": [
        0.037109375,
        0.544921875
      ],
      "type": "VEC2"
    },
    {
      "bufferView": 0,
      "byteOffset": 591960,
      "componentType": 5125,
      "count": 61956,
      "type": "SCALAR"
    }
  ],
  "asset": {
    "extras": {
      "author": "DURVESH123 (https://sketchfab.com/durvesh123)",
      "license": "CC-BY-4.0 (http://creativecommons.org/licenses/by/4.0/)",
      "source": "https://sketchfab.com/3d-models/ice-spikes-minecraft-4fdc8506fd3f4cfaa330967ea743d326",
      "title": "ICE SPIKES Minecraft"
    },
    "generator": "Sketchfab-12.66.0",
    "version": "2.0"
  },
  "bufferViews": [
    {
      "buffer": 0,
      "byteLength": 839784,
      "name": "floatBufferViews",
      "target": 34963
    },
    {
      "buffer": 0,
      "byteLength": 1118384,
      "byteOffset": 839784,
      "byteStride": 8,
      "name": "floatBufferViews",
      "target": 34962
    },
    {
      "buffer": 0,
      "byteLength": 3355152,
      "byteOffset": 1958168,
      "byteStride": 12,
      "name": "floatBufferViews",
      "target": 34962
    }
  ],
  "buffers": [
    {
      "byteLength": 5313320,
      "uri": "scene.bin"
    }
  ],
  "images": [
    {
      "uri": "textures/Coal_Ore_baseColor.png"
    },
    {
      "uri": "textures/Grass_baseColor.png"
    }
  ],
  "materials": [
    {
      "doubleSided": true,
      "emissiveFactor": [
        0.1,
        0.1,
        0.1
      ],
      "emissiveTexture": {
        "index": 0
      },
      "name": "Coal_Ore",
      "pbrMetallicRoughness": {
        "baseColorTexture": {
          "index": 0
        },
        "metallicFactor": 0.0
      }
    },
    {
      "doubleSided": true,
      "emissiveFactor": [
        0.1,
        0.1,
        0.1
      ],
      "emissiveTexture": {
        "index": 0
      },
      "name": "Dirt",
      "pbrMetallicRoughness": {
        "baseColorTexture": {
          "index": 0
        },
        "metallicFactor": 0.0
      }
    },
    {
      "alphaMode": "BLEND",
      "emissiveFactor": [
        0.1,
        0.1,
        0.1
      ],
      "emissiveTexture": {
        "index": 0
      },
      "name": "Grass",
      "pbrMetallicRoughness": {
        "baseColorTexture": {
          "index": 1
        },
        "metallicFactor": 0.0
      }
    },
    {
      "doubleSided": true,
      "emissiveFactor": [
        0.1,
        0.1,
        0.1
      ],
      "emissiveTexture": {
        "index": 0
      },
      "name": "Grass_Block",
      "pbrMetallicRoughness": {
        "baseColorTexture": {
          "index": 0
        },
        "metallicFactor": 0.0
      }
    },
    {
      "doubleSided": true,
      "emissiveFactor": [
        0.1,
        0.1,
        0.1
      ],
      "emissiveTexture": {
        "index": 0
      },
      "name": "Gravel",
      "pbrMetallicRoughness": {
        "baseColorTexture": {
          "index": 0
        },
        "metallicFactor": 0.0
      }
    },
    {
      "doubleSided": true,
      "emissiveFactor": [
        0.1,
        0.1,
        0.1
      ],
      "emissiveTexture": {
        "index": 0
      },
      "name": "Iron_Ore",
      "pbrMetallicRoughness": {
        "baseColorTexture": {
          "index": 0
        },
        "metallicFactor": 0.0
      }
    },
    {
      "doubleSided": true,
      "emissiveFactor": [
        0.1,
        0.1,
        0.1
      ],
      "emissiveTexture": {
        "index": 0
      },
      "name": "Packed_Ice",
      "pbrMetallicRoughness": {
        "baseColorTexture": {
          "index": 0
        },
        "metallicFactor": 0.0
      }
    },
    {
      "doubleSided": true,
      "emissiveFactor": [
        0.1,
        0.1,
        0.1
      ],
      "emissiveTexture": {
        "index": 0
      },
      "name": "Snow",
      "pbrMetallicRoughness": {
        "baseColorTexture": {
          "index": 0
        },
        "metallicFactor": 0.0
      }
    },
    {
      "doubleSided": true,
      "emissiveFactor": [
        0.1,
        0.1,
        0.1
      ],
      "emissiveTexture": {
        "index": 0
      },
      "name": "Snow_Block",
      "pbrMetallicRoughness": {
        "baseColorTexture": {
          "index": 0
        },
        "metallicFactor": 0.0
      }
    },
    {
      "alphaMode": "BLEND",
      "emissiveFactor": [
        0.1,
        0.1,
        0.1
      ],
      "emissiveTexture": {
        "index": 0
      },
      "name": "Stationary_Water",
      "pbrMetallicRoughness": {
        "baseColorTexture": {
          "index": 1
        },
        "metallicFactor": 0.0
      }
    },
    {
      "doubleSided": true,
      "emissiveFactor": [
        0.1,
        0.1,
        0.1
      ],
      "emissiveTexture": {
        "index": 0
      },
      "name": "Stone",
      "pbrMetallicRoughness": {
        "baseColorTexture": {
          "index": 0
        },
        "metallicFactor": 0.0
      }
    }
  ],
  "meshes": [
    {
      "name": "Object_0",
      "primitives": [
        {
          "attributes": {
            "NORMAL": 1,
            "POSITION": 0,
            "TEXCOORD_0": 2
          },
          "indices": 3,
          "material": 0,
          "mode": 4
        }
      ]
    },
    {
      "name": "Object_1",
      "primitives": [
        {
          "attributes": {
            "NORMAL": 5,
            "POSITION": 4,
            "TEXCOORD_0": 6
          },
          "indices": 7,
          "material": 1,
          "mode": 4
        }
      ]
    },
    {
      "name": "Object_2",
      "primitives": [
        {
          "attributes": {
            "NORMAL": 9,
            "POSITION": 8,
            "TEXCOORD_0": 10
          },
          "indices": 11,
          "material": 2,
          "mode": 4
        }
      ]
    },
    {
      "name": "Object_3",
      "primitives": [
        {
          "attributes": {
            "NORMAL": 13,
            "POSITION": 12,
            "TEXCOORD_0": 14
          },
          "indices": 15,
          "material": 3,
          "mode": 4
        }
      ]
    },
    {
      "name": "Object_4",
      "primitives": [
        {
          "attributes": {
            "NORMAL": 17,
            "POSITION": 16,
            "TEXCOORD_0": 18
          },
          "indices": 19,
          "material": 4,
          "mode": 4
        }
      ]
    },
    {
      "name": "Object_5",
      "primitives": [
        {
          "attributes": {
            "NORMAL": 21,
            "POSITION": 20,
            "TEXCOORD_0": 22
          },
          "indices": 23,
          "material": 5,
          "mode": 4
        }
      ]
    },
    {
      "name": "Object_6",
      "primitives": [
        {
          "attributes": {
            "NORMAL": 25,
            "POSITION": 24,
            "TEXCOORD_0": 26
          },
          "indices": 27,
          "material": 6,
          "mode": 4
        }
      ]
    },
    {
      "name": "Object_7",
      "primitives": [
        {
          "attributes": {
            "NORMAL": 29,
            "POSITION": 28,
            "TEXCOORD_0": 30
          },
          "indices": 31,
          "material": 7,
          "mode": 4
        }
      ]
    },
    {
      "name": "Object_8",
      "primitives": [
        {
          "attributes": {
            "NORMAL": 33,
            "POSITION": 32,
            "TEXCOORD_0": 34
          },
          "indices": 35,
          "material": 8,
          "mode": 4
        }
      ]
    },
    {
      "name": "Object_9",
      "primitives": [
        {
          "attributes": {
            "NORMAL": 37,
            "POSITION": 36,
            "TEXCOORD_0": 38
          },
          "indices": 39,
          "material": 9,
          "mode": 4
        }
      ]
    },
    {
      "name": "Object_10",
      "primitives": [
        {
          "attributes": {
            "NORMAL": 41,
            "POSITION": 40,
            "TEXCOORD_0": 42
          },
          "indices": 43,
          "material": 10,
          "mode": 4
        }
      ]
    }
  ],
  "nodes": [
    {
      "children": [
        1
      ],
      "matrix": [
        1.0,
        0.0,
        0.0,
        0.0,
        0.0,
        2.220446049250313e-16,
        -1.0,
        0.0,
        0.0,
        1.0,
        2.220446049250313e-16,
        0.0,
        0.0,
        0.0,
        0.0,
        1.0
      ],
      "name": "Sketchfab_model"
    },
    {
      "children": [
        2,
        3,
        4,
        5,
        6,
        7,
        8,
        9,
        10,
        11,
        12
      ],
      "name": "Mineways2Skfb.obj.minecraft.cleaner.materialmerger.gles"
    },
    {
      "mesh": 0,
      "name": "Object_2"
    },
    {
      "mesh": 1,
      "name": "Object_3"
    },
    {
      "mesh": 2,
      "name": "Object_4"
    },
    {
      "mesh": 3,
      "name": "Object_5"
    },
    {
      "mesh": 4,
      "name": "Object_6"
    },
    {
      "mesh": 5,
      "name": "Object_7"
    },
    {
      "mesh": 6,
      "name": "Object_8"
    },
    {
      "mesh": 7,
      "name": "Object_9"
    },
    {
      "mesh": 8,
      "name": "Object_10"
    },
    {
      "mesh": 9,
      "name": "Object_11"
    },
    {
      "mesh": 10,
      "name": "Object_12"
    }
  ],
  "samplers": [
    {
      "magFilter": 9728,
      "minFilter": 9986,
      "wrapS": 10497,
      "wrapT": 10497
    }
  ],
  "scene": 0,
  "scenes": [
    {
      "name": "Sketchfab_Scene",
      "nodes": [
        0
      ]
    }
  ],
  "textures": [
    {
      "sampler": 0,
      "source": 0
    },
    {
      "sampler": 0,
      "source": 1
    }
  ]
}
